<svg xmlns="http://www.w3.org/2000/svg" xmlns:xlink="http://www.w3.org/1999/xlink" width="129" height="168" viewBox="0 0 129 168"><defs><style>.a{fill:none;}.b{clip-path:url(#a);}.c,.e,.g{fill:#b98068;}.d{fill:#2d140d;}.e{font-size:20px;font-family:Sen-Regular, Sen;}.f{fill:#000;}.g{font-family:Sen-Bold, Sen;font-weight:700;}</style><clipPath id="a"><path class="a" d="M0,0H115.92V68.027H0Z" transform="translate(0 0.235)"/></clipPath></defs><g transform="translate(-142.5 -364)"><g transform="translate(127 363.941)"><g transform="translate(24)"><g transform="translate(0 48.561)"><path class="a" d="M0,0H115.92V68.027H0Z" transform="translate(0 0.235)"/><g class="b"><path class="c" d="M44.873,63.335C20.2,63.335,0,39.555,0,10.36V0H89.511V10.36c0,29.2-19.97,52.976-44.638,52.976" transform="translate(2.349 2.59)"/><path class="d" d="M47.222,68.045A41.111,41.111,0,0,1,28.842,63.7a47.378,47.378,0,0,1-15.01-11.846A56.418,56.418,0,0,1,3.711,34.272,63.31,63.31,0,0,1,0,12.714V2.354A2.226,2.226,0,0,1,2.349,0h99.614a15.022,15.022,0,0,1,6.02,1.589,13.41,13.41,0,0,1,4.787,4.062,18.191,18.191,0,0,1,2.936,7.387,17.387,17.387,0,0,1-.587,7.917,24.658,24.658,0,0,1-4.864,9.135,30.956,30.956,0,0,1-7.441,6.376,38.506,38.506,0,0,1-8.278,3.859,32.744,32.744,0,0,1-7.375,1.585,51.894,51.894,0,0,1-16.71,18.9,43.276,43.276,0,0,1-11.009,5.342A40.351,40.351,0,0,1,47.222,68.045ZM4.7,4.709v8.005c0,27.913,18.97,50.621,42.288,50.621,23.448,0,42.524-22.709,42.524-50.621V4.709Zm89.51.236v8a64.549,64.549,0,0,1-4.7,24.017c6.435-1.411,18.131-6.618,21.144-17.188a12.217,12.217,0,0,0-1.409-11.065,8.992,8.992,0,0,0-7.283-3.767H94.209Z" transform="translate(0 0.235)"/></g></g><path class="d" d="M2.349,29.9A2.222,2.222,0,0,0,4.7,27.547V2.354A2.222,2.222,0,0,0,2.349,0,2.222,2.222,0,0,0,0,2.354V27.547A2.357,2.357,0,0,0,2.349,29.9" transform="translate(36.885 13.715)"/><path class="d" d="M2.349,43.558A2.222,2.222,0,0,0,4.7,41.2V2.354A2.222,2.222,0,0,0,2.349,0,2.222,2.222,0,0,0,0,2.354V41.2a2.529,2.529,0,0,0,2.349,2.354" transform="translate(52.626 0.059)"/></g><rect class="d" width="121" height="5" rx="2.5" transform="translate(20 127)"/></g><text class="e" transform="translate(142.5 527)"><tspan class="f" x="0" y="0">COFFEE </tspan><tspan class="g" y="0">HUB</tspan></text></g></svg>